<?xml version="1.0" encoding="UTF-8"?>
<svg version="1.1" xmlns="http://www.w3.org/2000/svg" width="41" height="43">
<path d="M0 0 C4.95543018 1.39099795 7.68699513 2.6867427 10.5625 7 C11.15970246 9.56882779 11.67480054 12.09349359 12.125 14.6875 C12.25068359 15.37005859 12.37636719 16.05261719 12.50585938 16.75585938 C12.88069439 18.83413311 13.22711379 20.91501572 13.5625 23 C13.68141602 23.70858154 13.80033203 24.41716309 13.92285156 25.1472168 C14.79142182 30.91594855 13.92757824 33.81502077 11.5625 39 C10.5625 40 10.5625 40 8.1640625 40.0625 C6.18489354 40.02094265 4.20572685 39.97927656 2.2265625 39.9375 C-0.54306013 39.87191426 -0.54306013 39.87191426 -3.4375 41 C-10.33276506 41.67950108 -16.84907457 41.53796952 -22.4375 37 C-23.65234375 34.859375 -23.65234375 34.859375 -24.4375 33 C-22.16940254 34.13404873 -20.021687 35.26368629 -17.875 36.625 C-12.01894812 38.96742075 -5.48339825 38.75983893 0.5625 37 C0.8925 34.36 1.2225 31.72 1.5625 29 C-0.0875 28.34 -1.7375 27.68 -3.4375 27 C-3.7675 27.33 -4.0975 27.66 -4.4375 28 C-3.7775 28 -3.1175 28 -2.4375 28 C-2.7675 28.99 -3.0975 29.98 -3.4375 31 C-9.1875 32.125 -9.1875 32.125 -11.4375 31 C-11.4375 30.34 -11.4375 29.68 -11.4375 29 C-10.7775 28.67 -10.1175 28.34 -9.4375 28 C-11.31928097 25.5955021 -12.42974715 25.00209973 -15.4375 24.1875 C-18.62041805 23.68462405 -18.62041805 23.68462405 -21.4375 26 C-22.65034876 29.05429073 -22.65034876 29.05429073 -23.4375 32 C-24.0975 32 -24.7575 32 -25.4375 32 C-25.26557189 27.5298692 -25.09128517 25.60817225 -21.75 22.5 C-17.94970225 20.77911045 -16.37241518 20.77580417 -12.4375 22 C-11.4475 22.66 -10.4575 23.32 -9.4375 24 C-7.15101152 24.24107326 -7.15101152 24.24107326 -4.75 24.125 C-3.94175781 24.10695313 -3.13351563 24.08890625 -2.30078125 24.0703125 C-1.68589844 24.04710938 -1.07101563 24.02390625 -0.4375 24 C-0.293125 22.948125 -0.14875 21.89625 0 20.8125 C0.43776966 17.84539451 0.94054866 14.93205634 1.5625 12 C-1.0775 12 -3.7175 12 -6.4375 12 C-7.39273525 7.94025019 -7.83393275 5.7928655 -5.9375 2 C-3.4375 0 -3.4375 0 0 0 Z M-3.4375 3 C-3.7675 3.99 -4.0975 4.98 -4.4375 6 C-3.7775 6 -3.1175 6 -2.4375 6 C-2.7675 5.01 -3.0975 4.02 -3.4375 3 Z M0.5625 3 C0.5625 3.66 0.5625 4.32 0.5625 5 C-1.9375 6.625 -1.9375 6.625 -4.4375 8 C-4.1075 8.66 -3.7775 9.32 -3.4375 10 C-2.695 9.835 -1.9525 9.67 -1.1875 9.5 C1.5625 9 1.5625 9 5.5625 9 C5.5625 8.34 5.5625 7.68 5.5625 7 C6.2225 6.67 6.8825 6.34 7.5625 6 C4.50669026 3.41222792 4.50669026 3.41222792 0.5625 3 Z M7.5625 8 C7.08795174 9.66091892 6.61416878 11.32206086 6.14453125 12.984375 C5.58128103 14.93495966 4.97877169 16.87407511 4.375 18.8125 C3.22526794 21.87077197 3.22526794 21.87077197 4.5625 24 C3.9025 24 3.2425 24 2.5625 24 C2.2325 22.68 1.9025 21.36 1.5625 20 C1.39568891 22.91652174 1.39568891 22.91652174 1.5625 26 C2.2225 26.66 2.8825 27.32 3.5625 28 C3.79292499 31.53318313 3.60434255 34.61401171 2.5625 38 C5.46914533 38.24222044 7.14042515 38.23986768 9.70703125 36.78125 C11.72928322 35.16438938 11.72928322 35.16438938 12.05859375 32.86328125 C11.86363844 24.37622655 10.30821822 16.28177035 8.5625 8 C8.2325 8 7.9025 8 7.5625 8 Z " fill="#C4996F" transform="translate(25.4375,0)"/>
<path d="M0 0 C0.99 0.66 1.98 1.32 3 2 C5.12178095 2.09193304 5.12178095 2.09193304 7.375 1.875 C10.78523017 1.80824182 11.93385364 1.96490193 15.0625 3.625 C17 6 17 6 17.625 8.875 C16.75826557 13.20867216 15.12038897 14.87961103 12 18 C5.94448229 20.0185059 -0.73911396 19.96971326 -6.5625 17.25 C-9.58258556 15.66775143 -10.67785118 14.1310589 -12 11 C-9.73190254 12.13404873 -7.584187 13.26368629 -5.4375 14.625 C0.41855188 16.96742075 6.95410175 16.75983893 13 15 C13.33 12.36 13.66 9.72 14 7 C12.35 6.34 10.7 5.68 9 5 C8.67 5.33 8.34 5.66 8 6 C8.66 6 9.32 6 10 6 C9.67 6.99 9.34 7.98 9 9 C3.25 10.125 3.25 10.125 1 9 C1 8.34 1 7.68 1 7 C1.66 6.67 2.32 6.34 3 6 C1.11821903 3.5955021 0.00775285 3.00209973 -3 2.1875 C-6.18291805 1.68462405 -6.18291805 1.68462405 -9 4 C-10.21284876 7.05429073 -10.21284876 7.05429073 -11 10 C-11.66 10 -12.32 10 -13 10 C-12.82807189 5.5298692 -12.65378517 3.60817225 -9.3125 0.5 C-5.51220225 -1.22088955 -3.93491518 -1.22419583 0 0 Z " fill="#70533B" transform="translate(13,22)"/>
<path d="M0 0 C0.66 0 1.32 0 2 0 C2.7364309 3.0146795 3.43387168 6.03714151 4.125 9.0625 C4.33253906 9.91005859 4.54007813 10.75761719 4.75390625 11.63085938 C6.35957769 18.80101289 5.6388132 23.50211928 2 30 C-4.0546875 30.1953125 -4.0546875 30.1953125 -6 30 C-6.66 29.34 -7.32 28.68 -8 28 C-6 27 -6 27 -3.5625 27.0625 C-0.75471394 27.22232131 -0.75471394 27.22232131 2 25 C3.02714238 18.43954223 1.70875877 12.30104798 0 6 C-0.125 2.5 -0.125 2.5 0 0 Z " fill="#ECB582" transform="translate(34,10)"/>
<path d="M0 0 C3.90730957 1.65309251 5.62254983 2.43382474 8 6 C8.66 6 9.32 6 10 6 C9.67 6.99 9.34 7.98 9 9 C3.25 10.125 3.25 10.125 1 9 C1 8.34 1 7.68 1 7 C1.66 6.67 2.32 6.34 3 6 C1.11821903 3.5955021 0.00775285 3.00209973 -3 2.1875 C-6.18291805 1.68462405 -6.18291805 1.68462405 -9 4 C-10.21284876 7.05429073 -10.21284876 7.05429073 -11 10 C-11.66 10 -12.32 10 -13 10 C-12.82807189 5.5298692 -12.65378517 3.60817225 -9.3125 0.5 C-5.43872309 -1.25416313 -4.01300976 -1.25406555 0 0 Z " fill="#6B4F3A" transform="translate(13,22)"/>
<path d="M0 0 C-0.33 0.99 -0.66 1.98 -1 3 C-1.763125 3.020625 -2.52625 3.04125 -3.3125 3.0625 C-6.41389118 3.79660949 -6.41389118 3.79660949 -7.8125 7.5625 C-8.204375 8.696875 -8.59625 9.83125 -9 11 C-9.66 11 -10.32 11 -11 11 C-10.875 7.75 -10.875 7.75 -10 4 C-6.38889667 0.87037711 -4.82403959 0 0 0 Z " fill="#6B4E3A" transform="translate(11,21)"/>
<path d="M0 0 C1 3 1 3 0.0625 5.6875 C-2 8 -2 8 -3.9140625 8.390625 C-6.0625 8.4375 -6.0625 8.4375 -10 8 C-10.66 7.34 -11.32 6.68 -12 6 C-10 5 -10 5 -7.6875 5.25 C-3.82381777 4.8905877 -2.47885357 2.83297551 0 0 Z " fill="#E3B680" transform="translate(38,32)"/>
<path d="M0 0 C0.66 0 1.32 0 2 0 C2.05395478 1.62463842 2.09277195 3.24978541 2.125 4.875 C2.14820313 5.77992187 2.17140625 6.68484375 2.1953125 7.6171875 C2 10 2 10 0 12 C-0.99 12 -1.98 12 -3 12 C-3 11.34 -3 10.68 -3 10 C-2.34 9.67 -1.68 9.34 -1 9 C-0.53348793 6.87423218 -0.53348793 6.87423218 -0.375 4.4375 C-0.30023438 3.61121094 -0.22546875 2.78492188 -0.1484375 1.93359375 C-0.09945312 1.29550781 -0.05046875 0.65742188 0 0 Z " fill="#6C5137" transform="translate(34,24)"/>
<path d="M0 0 C0.66 0 1.32 0 2 0 C1.40380045 4.86896303 0.43023178 9.32790951 -1 14 C-1.66 14 -2.32 14 -3 14 C-2.48594831 9.03083364 -1.76615118 4.70973649 0 0 Z " fill="#EFC38E" transform="translate(28,11)"/>
<path d="M0 0 C0.66 0 1.32 0 2 0 C1.67 0.99 1.34 1.98 1 3 C-4.75 4.125 -4.75 4.125 -7 3 C-7 2.34 -7 1.68 -7 1 C-5.5459375 1.0309375 -5.5459375 1.0309375 -4.0625 1.0625 C-1.12534105 1.35618499 -1.12534105 1.35618499 0 0 Z " fill="#EDBA84" transform="translate(21,28)"/>
<path d="M0 0 C2 2 2 2 2 5 C0.68 5 -0.64 5 -2 5 C-3.34164079 5.2981424 -4.67851173 5.62243192 -6 6 C-6 5.34 -6 4.68 -6 4 C-5.01 4 -4.02 4 -3 4 C-3 3.34 -3 2.68 -3 2 C-2.01 1.34 -1.02 0.68 0 0 Z " fill="#E6AE7C" transform="translate(34,5)"/>
<path d="M0 0 C0.66 0 1.32 0 2 0 C2.33 2.31 2.66 4.62 3 7 C2.01 7.66 1.02 8.32 0 9 C0 6.03 0 3.06 0 0 Z " fill="#ECC490" transform="translate(37,24)"/>
<path d="M0 0 C1.32 0.33 2.64 0.66 4 1 C-0.625 5.875 -0.625 5.875 -4 7 C-2.79618552 4.50638429 -1.54571278 2.31856917 0 0 Z " fill="#DEB482" transform="translate(22,0)"/>
</svg>
